<?xml version="1.0" encoding="UTF-8"?><svg id="uuid-58dad2f1-ede6-41c9-8e67-fc88a01b65d3" xmlns="http://www.w3.org/2000/svg" width="2524.37" height="560" viewBox="0 0 2524.37 560"><path d="m858.62,313.83l-46.61-10.54c-12.43-2.97-21.55-7.5-27.36-13.58-5.81-6.08-8.71-14.39-8.71-24.93,0-12.42,4.79-22.22,14.39-29.38,9.59-7.16,22.36-10.74,38.3-10.74,14.59,0,26.21,3.58,34.86,10.74,8.64,7.16,13.24,17.09,13.78,29.79h51.88c-.54-17.83-4.93-33.24-13.17-46.21-8.25-12.97-19.73-22.96-34.45-29.99-14.73-7.02-32.09-10.54-52.08-10.54s-39.11,3.72-54.92,11.15c-15.81,7.44-28.17,17.77-37.09,31.01-8.92,13.24-13.38,28.51-13.38,45.8,0,22.97,6.49,41.54,19.45,55.73,12.97,14.19,32.02,23.98,57.15,29.39l47.02,10.54c12.16,2.43,20.94,6.69,26.35,12.77,5.4,6.08,8.11,14.26,8.11,24.52,0,11.89-5.07,21.42-15.2,28.57-10.13,7.16-23.85,10.74-41.14,10.74s-29.52-3.58-39.11-10.74c-9.59-7.16-14.53-16.95-14.79-29.38h-51.88c.54,17.57,5.2,32.83,13.98,45.8,8.78,12.97,21.01,23.04,36.68,30.2,15.67,7.16,33.91,10.74,54.72,10.74,21.89,0,41-3.72,57.35-11.15,16.35-7.43,28.98-18.04,37.9-31.82s13.38-29.72,13.38-47.83c0-22.15-6.22-39.78-18.64-52.89-12.43-13.1-31.35-22.35-56.74-27.76Z" stroke-width="0"/><path d="m1137.18,286.67c-13.92-8.64-30.47-12.97-49.65-12.97-14.86,0-28.51,3.18-40.94,9.52-12.43,6.35-21.62,15.34-27.56,26.95l-3.24-30.4h-45.8v280.22h49.45v-106.75c6.21,10,15.47,17.83,27.76,23.51,12.29,5.67,25.87,8.51,40.73,8.51,19.99,0,36.95-4.66,50.87-13.98,13.91-9.32,24.52-22.09,31.82-38.3,7.3-16.21,10.94-34.72,10.94-55.53s-3.92-39.31-11.75-54.72c-7.84-15.4-18.71-27.42-32.63-36.07Zm-11.96,124.84c-4.32,9.19-10.68,16.41-19.05,21.68-8.38,5.27-18.38,7.9-29.99,7.9s-21.28-2.64-29.79-7.9c-8.51-5.27-15.07-12.49-19.66-21.68-4.6-9.18-6.89-19.72-6.89-31.61s2.29-22.83,6.89-32.02c4.59-9.18,11.15-16.34,19.66-21.48,8.51-5.13,18.44-7.7,29.79-7.7s21.61,2.64,29.99,7.9c8.37,5.27,14.72,12.5,19.05,21.68,4.32,9.19,6.49,19.73,6.49,31.61s-2.17,22.43-6.49,31.61Z" stroke-width="0"/><path d="m1369.46,310.58c-6.22-11.89-15.74-21.01-28.57-27.36-12.84-6.35-26.69-9.52-41.54-9.52-18.64,0-35.06,4.33-49.24,12.97-14.19,8.65-25.2,20.67-33.03,36.07-7.84,15.4-11.75,33.64-11.75,54.72s3.65,39.32,10.94,55.53c7.3,16.21,17.97,28.98,32.02,38.3,14.05,9.32,30.8,13.98,50.26,13.98,16.21,0,30.26-3.51,42.15-10.54,11.89-7.02,20.94-15.67,27.16-25.94l3.24,31.21h45.8v-200.22h-44.58l-2.84,30.8Zm-9.52,101.12c-4.73,9.32-11.29,16.56-19.66,21.68-8.38,5.14-18.38,7.7-29.99,7.7s-21.22-2.64-29.59-7.9c-8.38-5.27-14.79-12.49-19.25-21.68-4.46-9.18-6.69-19.72-6.69-31.61s2.23-22.43,6.69-31.61c4.46-9.18,10.94-16.41,19.45-21.68,8.51-5.27,18.44-7.9,29.79-7.9s21.28,2.57,29.79,7.7c8.51,5.14,15.06,12.3,19.66,21.48,4.59,9.19,6.89,19.86,6.89,32.02s-2.37,22.49-7.09,31.82Z" stroke-width="0"/><path d="m1582.45,432.18c-8.25,5.95-18.58,8.92-31.01,8.92-10.54,0-19.66-2.49-27.36-7.5-7.7-5-13.58-12.09-17.63-21.28-4.05-9.18-6.08-20.13-6.08-32.83s2.16-23.64,6.49-32.83c4.32-9.18,10.47-16.28,18.44-21.28,7.97-5,17.09-7.5,27.36-7.5,11.89,0,21.82,2.91,29.79,8.71,7.97,5.81,13.44,14.39,16.41,25.74h49.45c-2.71-24.05-12.77-43.17-30.2-57.35-17.43-14.19-39.79-21.28-67.08-21.28-19.73,0-37.09,4.53-52.08,13.58-15,9.06-26.75,21.55-35.26,37.49-8.51,15.95-12.77,34.18-12.77,54.72s4.12,39.92,12.36,55.73c8.24,15.81,19.92,28.11,35.06,36.88,15.13,8.78,32.83,13.17,53.1,13.17,17.56,0,33.24-3.31,47.02-9.93,13.78-6.62,25.06-15.81,33.84-27.56,8.78-11.75,14.25-25.47,16.41-41.14h-49.85c-2.71,11.08-8.18,19.59-16.41,25.53Z" stroke-width="0"/><path d="m1803.7,437.04c-8.78,5.14-19.93,7.7-33.44,7.7-18.38,0-32.22-5.53-41.54-16.62-7.43-8.83-11.89-21.01-13.4-36.53l150.59-.36v-15c0-21.08-3.99-39.18-11.96-54.31-7.97-15.13-19.25-26.95-33.84-35.46-14.59-8.51-32.02-12.77-52.28-12.77s-36.75,4.53-51.88,13.58c-15.14,9.06-26.89,21.55-35.26,37.49-8.38,15.95-12.56,34.32-12.56,55.12s4.32,38.71,12.97,54.51c8.64,15.81,20.6,28.24,35.87,37.29,15.26,9.05,32.76,13.58,52.49,13.58,26.21,0,47.89-6.21,65.05-18.64,17.16-12.43,27.9-29.59,32.22-51.47h-45.8c-2.7,9.46-8.45,16.76-17.23,21.89Zm-64.85-115.51c7.97-4.86,17.77-7.3,29.39-7.3,14.86,0,26.68,4.19,35.46,12.57,8.78,8.38,13.17,19.46,13.17,33.24h-100.68c1.01-6.1,2.55-11.65,4.62-16.62,4.05-9.73,10.06-17.02,18.04-21.89Z" stroke-width="0"/><path d="m2014.5,273.7c-14.59,0-27.5,2.91-38.71,8.71-11.22,5.81-19.93,13.58-26.14,23.31v-126.08h-49.85v300.36h49.45v-109.43c0-9.99,1.96-18.91,5.88-26.75,3.91-7.83,9.59-13.98,17.02-18.44,7.43-4.46,16.28-6.69,26.55-6.69,8.37,0,15.67,1.82,21.89,5.47,6.21,3.65,11.08,9.12,14.59,16.42,3.51,7.29,5.27,16.62,5.27,27.97v111.46h49.45v-123.21c0-25.67-6.42-45.93-19.25-60.8-12.84-14.86-31.55-22.29-56.14-22.29Z" stroke-width="0"/><path d="m2286.58,310.58c-6.22-11.89-15.74-21.01-28.57-27.36-12.84-6.35-26.69-9.52-41.54-9.52-18.64,0-35.06,4.33-49.25,12.97-14.19,8.65-25.2,20.67-33.03,36.07-7.84,15.4-11.75,33.64-11.75,54.72s3.65,39.32,10.94,55.53c7.29,16.21,17.97,28.98,32.02,38.3,14.05,9.32,30.8,13.98,50.26,13.98,16.21,0,30.26-3.51,42.15-10.54,11.89-7.02,20.94-15.67,27.16-25.94l3.24,31.21h45.8v-200.22h-44.58l-2.84,30.8Zm-9.52,101.12c-4.73,9.32-11.28,16.56-19.66,21.68-8.38,5.14-18.38,7.7-29.99,7.7s-21.21-2.64-29.59-7.9c-8.38-5.27-14.79-12.49-19.25-21.68-4.46-9.18-6.69-19.72-6.69-31.61s2.23-22.43,6.69-31.61c4.46-9.18,10.94-16.41,19.46-21.68,8.51-5.27,18.44-7.9,29.79-7.9s21.28,2.57,29.79,7.7c8.51,5.14,15.06,12.3,19.66,21.48,4.59,9.19,6.89,19.86,6.89,32.02s-2.37,22.49-7.09,31.82Z" stroke-width="0"/><rect x="2380.29" y="179.65" width="49.04" height="300.36" stroke-width="0"/><rect x="2475.33" y="179.65" width="49.04" height="300.36" stroke-width="0"/><path d="m240,560h0s320,0,320,0V240h0c-176.73,0-320,143.27-320,320Z" stroke-width="0"/><path d="m360,200v-40h-79.9c-44.24,0-80.1-35.86-80.1-80.1V0h-40v79.9c0,44.24-35.86,80.1-80.1,80.1H0v40h79.9c44.24,0,80.1,35.86,80.1,80.1v79.9h40v-79.9c0-44.24,35.86-80.1,80.1-80.1h79.9Z" stroke-width="0"/></svg>