<?xml version="1.0" encoding="UTF-8"?><svg id="uuid-32582bad-ba35-441b-9d26-d5f76eb4574b" xmlns="http://www.w3.org/2000/svg" width="1200" height="1200" viewBox="0 0 1200 1200"><path d="m241.19,731.11l-21.9-4.95c-5.84-1.4-10.13-3.52-12.86-6.38-2.73-2.86-4.09-6.76-4.09-11.71,0-5.84,2.25-10.44,6.76-13.81,4.51-3.36,10.51-5.05,18-5.05,6.86,0,12.31,1.68,16.38,5.05,4.06,3.37,6.22,8.03,6.48,14h24.38c-.26-8.38-2.32-15.62-6.19-21.71-3.87-6.09-9.27-10.79-16.19-14.09-6.92-3.3-15.08-4.95-24.47-4.95s-18.38,1.75-25.81,5.24c-7.43,3.49-13.24,8.35-17.43,14.57-4.19,6.22-6.29,13.4-6.29,21.52,0,10.79,3.05,19.52,9.14,26.19,6.09,6.67,15.05,11.27,26.86,13.81l22.09,4.95c5.71,1.14,9.84,3.14,12.38,6,2.54,2.86,3.81,6.7,3.81,11.52,0,5.59-2.38,10.06-7.14,13.43-4.76,3.37-11.21,5.05-19.33,5.05s-13.87-1.68-18.38-5.05c-4.51-3.36-6.83-7.97-6.95-13.81h-24.38c.25,8.26,2.44,15.43,6.57,21.52,4.12,6.09,9.87,10.83,17.24,14.19,7.36,3.36,15.93,5.05,25.71,5.05,10.29,0,19.27-1.75,26.95-5.24,7.68-3.49,13.62-8.48,17.81-14.95,4.19-6.48,6.29-13.97,6.29-22.47,0-10.41-2.92-18.7-8.76-24.86-5.84-6.16-14.73-10.5-26.66-13.05Z" stroke-width="0"/><path d="m372.09,718.35c-6.54-4.06-14.32-6.09-23.33-6.09-6.98,0-13.4,1.49-19.24,4.48-5.84,2.98-10.16,7.21-12.95,12.67l-1.52-14.28h-21.52v131.68h23.24v-50.16c2.92,4.7,7.27,8.38,13.05,11.05,5.78,2.67,12.16,4,19.14,4,9.4,0,17.36-2.19,23.9-6.57,6.54-4.38,11.52-10.38,14.95-18,3.43-7.62,5.14-16.31,5.14-26.09s-1.84-18.47-5.52-25.71c-3.68-7.24-8.79-12.89-15.33-16.95Zm-5.62,58.66c-2.03,4.32-5.02,7.71-8.95,10.19-3.94,2.48-8.64,3.71-14.09,3.71s-10-1.24-14-3.71c-4-2.48-7.08-5.87-9.24-10.19-2.16-4.31-3.24-9.27-3.24-14.86s1.08-10.73,3.24-15.05c2.16-4.32,5.24-7.68,9.24-10.09,4-2.41,8.67-3.62,14-3.62s10.16,1.24,14.09,3.71c3.93,2.48,6.92,5.87,8.95,10.19,2.03,4.32,3.05,9.27,3.05,14.86s-1.02,10.54-3.05,14.86Z" stroke-width="0"/><path d="m481.24,729.59c-2.92-5.59-7.4-9.87-13.43-12.86-6.03-2.98-12.54-4.48-19.52-4.48-8.76,0-16.48,2.03-23.14,6.09-6.67,4.07-11.84,9.71-15.52,16.95-3.68,7.24-5.52,15.81-5.52,25.71s1.71,18.48,5.14,26.09c3.43,7.62,8.44,13.62,15.05,18,6.6,4.38,14.48,6.57,23.62,6.57,7.62,0,14.22-1.65,19.81-4.95,5.59-3.3,9.84-7.36,12.76-12.19l1.52,14.67h21.52v-94.09h-20.95l-1.33,14.48Zm-4.48,47.52c-2.22,4.38-5.3,7.78-9.24,10.19-3.94,2.41-8.64,3.62-14.09,3.62s-9.97-1.24-13.9-3.71c-3.94-2.48-6.95-5.87-9.05-10.19-2.1-4.31-3.14-9.27-3.14-14.86s1.05-10.54,3.14-14.86c2.09-4.32,5.14-7.71,9.14-10.19,4-2.48,8.67-3.71,14-3.71s10,1.21,14,3.62c4,2.41,7.08,5.78,9.24,10.09,2.16,4.32,3.24,9.33,3.24,15.05s-1.11,10.57-3.33,14.95Z" stroke-width="0"/><path d="m581.33,786.73c-3.88,2.79-8.73,4.19-14.57,4.19-4.95,0-9.24-1.17-12.86-3.52-3.62-2.35-6.38-5.68-8.29-10-1.9-4.31-2.86-9.46-2.86-15.43s1.02-11.11,3.05-15.43c2.03-4.32,4.92-7.65,8.67-10,3.74-2.35,8.03-3.52,12.86-3.52,5.59,0,10.25,1.37,14,4.09,3.74,2.73,6.31,6.76,7.71,12.09h23.24c-1.27-11.3-6-20.28-14.19-26.95-8.19-6.67-18.7-10-31.52-10-9.27,0-17.43,2.13-24.47,6.38-7.05,4.26-12.57,10.13-16.57,17.62-4,7.49-6,16.06-6,25.71s1.93,18.76,5.81,26.19c3.87,7.43,9.36,13.21,16.47,17.33,7.11,4.12,15.43,6.19,24.95,6.19,8.25,0,15.62-1.56,22.09-4.67,6.47-3.11,11.78-7.43,15.9-12.95,4.12-5.52,6.7-11.97,7.71-19.33h-23.43c-1.27,5.21-3.84,9.21-7.71,12Z" stroke-width="0"/><path d="m685.3,789.01c-4.13,2.41-9.37,3.62-15.71,3.62-8.64,0-15.14-2.6-19.52-7.81-3.49-4.15-5.59-9.87-6.29-17.17l70.77-.17v-7.05c0-9.9-1.88-18.41-5.62-25.52-3.75-7.11-9.05-12.67-15.9-16.67-6.86-4-15.05-6-24.57-6s-17.27,2.13-24.38,6.38c-7.11,4.26-12.64,10.13-16.57,17.62-3.94,7.49-5.9,16.13-5.9,25.9s2.03,18.19,6.09,25.62c4.06,7.43,9.68,13.27,16.86,17.52,7.17,4.25,15.39,6.38,24.66,6.38,12.31,0,22.5-2.92,30.57-8.76,8.06-5.84,13.11-13.9,15.14-24.19h-21.52c-1.27,4.45-3.97,7.87-8.09,10.29Zm-30.47-54.28c3.74-2.29,8.35-3.43,13.81-3.43,6.98,0,12.54,1.97,16.67,5.9,4.12,3.94,6.19,9.14,6.19,15.62h-47.31c.48-2.87,1.2-5.47,2.17-7.81,1.9-4.57,4.73-8,8.48-10.29Z" stroke-width="0"/><path d="m784.36,712.26c-6.86,0-12.92,1.37-18.19,4.09-5.27,2.73-9.37,6.38-12.28,10.95v-59.24h-23.43v141.14h23.24v-51.43c0-4.7.92-8.89,2.76-12.57,1.84-3.68,4.51-6.57,8-8.67,3.49-2.1,7.65-3.14,12.48-3.14,3.93,0,7.36.86,10.29,2.57,2.92,1.71,5.21,4.29,6.86,7.71,1.65,3.43,2.48,7.81,2.48,13.14v52.38h23.24v-57.9c0-12.06-3.02-21.58-9.05-28.57-6.03-6.98-14.83-10.48-26.38-10.48Z" stroke-width="0"/><path d="m912.21,729.59c-2.92-5.59-7.4-9.87-13.43-12.86-6.03-2.98-12.54-4.48-19.52-4.48-8.76,0-16.48,2.03-23.14,6.09-6.67,4.07-11.84,9.71-15.52,16.95-3.68,7.24-5.52,15.81-5.52,25.71s1.71,18.48,5.14,26.09c3.43,7.62,8.44,13.62,15.05,18,6.6,4.38,14.48,6.57,23.62,6.57,7.62,0,14.22-1.65,19.81-4.95,5.59-3.3,9.84-7.36,12.76-12.19l1.52,14.67h21.52v-94.09h-20.95l-1.33,14.48Zm-4.48,47.52c-2.22,4.38-5.3,7.78-9.24,10.19-3.94,2.41-8.64,3.62-14.09,3.62s-9.97-1.24-13.9-3.71c-3.94-2.48-6.95-5.87-9.05-10.19-2.09-4.31-3.14-9.27-3.14-14.86s1.05-10.54,3.14-14.86c2.1-4.32,5.14-7.71,9.14-10.19,4-2.48,8.67-3.71,14-3.71s10,1.21,14,3.62c4,2.41,7.08,5.78,9.24,10.09,2.16,4.32,3.24,9.33,3.24,15.05s-1.11,10.57-3.33,14.95Z" stroke-width="0"/><rect x="956.24" y="668.06" width="23.05" height="141.14" stroke-width="0"/><rect x="1000.91" y="668.06" width="23.05" height="141.14" stroke-width="0"/><path d="m577.99,591.06h176.05v-176.05h0c-97.23,0-176.05,78.82-176.05,176.05Z" stroke-width="0"/><path d="m533.98,437.07v43.96h22.01v-43.96c0-24.34,19.73-44.07,44.07-44.07h43.96v-22.01h-43.96c-24.34,0-44.07-19.73-44.07-44.07v-43.96h-22.01v43.96c0,24.34-19.73,44.07-44.07,44.07h-43.96v22.01h43.96c24.34,0,44.07,19.73,44.07,44.07Z" stroke-width="0"/></svg>